<?xml version="1.0" encoding="UTF-8"?>
<svg enable-background="new 0 0 2280.067 1646.086" version="1.1" viewBox="0 0 2280.067 1646.086" xmlns="http://www.w3.org/2000/svg">
 <path d="m2129.1 830.13c42.644-59.107 67.786-131.68 67.786-210.13 0-259.61-266.86-432.56-502.91-329.82-75.747-54.693-169.53-76.742-261.85-61.949-21.234-116.7-123.39-205.19-246.22-205.19-122.18 0-223.9 87.557-245.87 203.34-229.54-191.49-581.35-2.784-541.76 298.73-197.51-18.627-366.33 136.59-366.33 333.02 0 171.54 129.12 312.89 295.46 332.25-53.444 345.44 370.19 547.45 606.97 299.7 138.46 114.26 346.78 91.73 456.52-55.185 87.232 114.34 224.9 188.15 379.82 188.15 413.1 0 626.9-488.09 358.38-792.92z"/>
 <g fill="#fff">
  <path d="m457.6 1450.9l9.068-3.358-2.651-17.081 7.647-4.838 14.3 9.71 6.918-6.756-9.369-14.526 5.018-7.53 17.013 3.054 3.572-8.986-14.467-9.459 1.521-8.92 16.784-4.13-0.392-9.661-17.064-2.757-2.239-8.768 13.654-10.6-4.288-8.667-16.71 4.422-5.611-7.099 8.162-15.237-7.442-6.174-13.467 10.836-8.014-4.203 1.259-17.239-9.31-2.613-7.895 15.376-9.03-0.58-5.862-16.261-9.568 1.4-0.958 17.259-8.486 3.143-11.969-12.471-8.171 5.17 6.144 16.156-6.474 6.323-16.006-6.525-5.362 8.047 12.184 12.26-3.343 8.409-17.276 0.55-1.625 9.532 16.118 6.245 0.367 9.042-15.559 7.529 2.392 9.369 17.264-0.851 4.013 8.111-11.151 13.207 5.996 7.586 15.425-7.799 6.965 5.778-4.816 16.601 8.563 4.491 10.92-13.399 8.712 2.445 2.353 17.124 9.65 0.62 4.526-16.682 8.954-1.31 9.113 14.685zm-53.669-60.907c-7.455-17.373 0.584-37.5 17.957-44.955s37.5 0.584 44.955 17.957-0.584 37.5-17.957 44.955c-17.372 7.455-37.499-0.585-44.955-17.957z"/>
  <path d="m1572.5 772.65l-0.018-10.021-17.559-3.54-1.966-9.169 14.564-10.428-4.092-9.147-17.481 3.908-5.526-7.577 9.064-15.45-7.459-6.692-14.38 10.68-8.13-4.674 1.996-17.801-9.536-3.08-8.793 15.606-9.328-0.964-5.417-17.074-9.964 1.065-1.686 17.833-8.913 2.914-11.893-13.395-8.669 5.026 5.714 16.977-6.958 6.287-16.313-7.399-5.876 8.117 12.125 13.185-3.799 8.574-17.912-0.124-2.066 9.805 16.439 7.114 0.017 9.378-16.414 7.172 2.101 9.798 17.912-0.188 3.829 8.56-12.078 13.228 5.904 8.096 16.287-7.457 6.98 6.263-5.653 16.997 8.687 4.995 11.846-13.437 8.924 2.882 1.749 17.827 9.968 1.03 5.356-17.093 9.325-0.997 8.848 15.575 9.525-3.113-2.059-17.794 8.113-4.703 14.418 10.629 7.435-6.718-9.118-15.418 5.499-7.596 17.495 3.846 4.06-9.161-14.601-10.376 1.934-9.176 17.543-3.605zm-78.452 30.372c-19.564 1.027-36.257-14-37.284-33.564s14-36.257 33.564-37.284 36.257 14 37.284 33.564c1.027 19.565-14 36.257-33.564 37.284z"/>
  <path d="m1172.4 962.27l-24.382-5.052-17.539 40.91-23.302 0.12-17.959-40.727-24.329 5.302 0.616 44.507-21.239 9.587-32.971-29.902-20.069 14.739 18.666 40.408-15.503 17.397-42.283-13.906-12.339 21.628 33.487 29.323-7.087 22.199-44.284 4.494-2.476 24.777 42.519 13.167 2.555 23.162-38.627 22.118 7.816 23.641 44.199-5.265 11.755 20.121-26.292 35.917 16.756 18.418 38.236-22.787 18.922 13.6-9.41 43.505 22.799 10.011 25.662-36.369 22.818 4.728 9.099 43.571 24.9-0.128 8.651-43.662 22.768-4.962 26.034 36.104 22.695-10.244-9.856-43.406 18.782-13.794 38.468 22.393 16.566-18.59-26.659-35.644 11.547-20.24 44.25 4.811 7.573-23.721-38.852-21.72 2.317-23.187 42.381-13.603-2.73-24.75-44.328-4.039-7.315-22.125 33.185-29.665-12.561-21.5-42.138 14.34-15.681-17.237 18.25-40.598-20.219-14.532-32.662 30.239-21.336-9.369 0.156-44.513zm33.988 206.26c-7.449 48.109-52.488 81.07-100.6 73.621-48.109-7.449-81.07-52.488-73.621-100.6 7.449-48.109 52.488-81.07 100.6-73.621 48.109 7.449 81.07 52.487 73.621 100.6z"/>
  <path d="m89.759 713.16l-4.012 17.415 29.075 13.234-0.284 16.722-29.508 12.24 3.418 17.541 31.944 0.264 6.542 15.391-21.978 23.183 10.257 14.634 29.29-12.752 12.237 11.4-10.648 30.118 15.323 9.197 21.571-23.563 15.816 5.437 2.522 31.846 17.739 2.169 10.122-30.299 16.66-1.466 15.257 28.067 17.087-5.233-3.077-31.797 14.623-8.115 25.354 19.434 13.481-11.731-15.744-27.796 10.058-13.361 31.066 7.442 7.545-16.2-25.689-18.99 3.754-16.297 31.408-5.837 0.303-17.868-31.191-6.899-3.199-16.415 26.318-18.107-6.991-16.447-31.301 6.384-9.599-13.695 16.678-27.246-13.076-12.181-25.998 18.563-14.34-8.607 4.154-31.674-16.9-5.81-16.2 27.533-16.6-2.03-9.088-30.625-17.802 1.566-3.601 31.742-15.991 4.897-20.759-24.281-15.626 8.672 9.621 30.462-12.617 10.978-28.84-13.738-10.748 14.277 21.179 23.916-7.061 15.161-31.934-0.825zm148.54-21.116c34.401 6.108 57.337 38.947 51.229 73.347s-38.947 57.337-73.347 51.229c-34.401-6.108-57.337-38.947-51.229-73.347 6.107-34.401 38.946-57.337 73.347-51.229z"/>
  <path d="m1632.2 469.48l10.957-8.617-11.189-22.264 8.353-10.02 23.914 7 6.505-12.329-19.277-15.788 3.556-12.551 24.694-3.332 0.928-13.908-24.033-6.582-1.857-12.912 21.204-13.088-4.809-13.083-24.632 3.762-6.948-11.041 14.047-20.581-9.715-9.996-20.973 13.455-10.838-7.26 4.462-24.515-12.941-5.18-13.687 20.822-12.854-2.224-5.895-24.21-13.929 0.531-4.034 24.589-12.647 3.196-15.232-19.72-12.509 6.151 6.316 24.104-10.254 8.064-21.936-11.819-8.926 10.707 15.574 19.451-6.087 11.538-24.847-1.875-3.799 13.411 22.139 11.435-0.868 13.016-23.462 8.393 1.984 13.797 24.876 1.442 4.501 12.244-18.019 17.21 7.424 11.797 23.312-8.801 9.092 9.355-9.462 23.051 11.581 7.758 17.717-17.522 12.111 4.848 0.732 24.907 13.735 2.377 9.058-23.213 13.036-0.497 10.799 22.456 13.514-3.415-1.166-24.89 11.706-5.756 18.998 16.122zm-100.57-59.842c-17.911-20.54-15.779-51.711 4.762-69.622s51.711-15.779 69.622 4.762 15.779 51.711-4.762 69.622c-20.54 17.911-51.711 15.779-69.622-4.762z"/>
  <path d="m505.41 1414.9l8.302 25.071 46.876-5.607 12.478 21.335-27.868 38.108 17.782 19.527 40.543-24.189 20.077 14.415-9.959 46.148 24.187 10.606 27.199-38.588 24.204 5.003 9.673 46.209 26.41-0.148 9.153-46.315 24.146-5.274 27.631 38.28 24.066-10.877-10.476-46.033 19.914-14.64 40.812 23.732 17.561-19.725-28.294-37.792 12.237-21.474 46.936 5.08 8.02-25.163-41.22-23.017 2.445-24.594 44.945-14.45-2.908-26.25-47.016-4.262-7.769-23.463 35.182-31.481-13.333-22.797-44.686 15.231-16.641-18.274 19.336-43.069-21.453-15.403-34.628 32.089-22.635-9.926 0.146-47.21-25.863-5.346-18.582 43.4-24.715 0.139-19.069-43.188-25.802 5.636 0.677 47.206-22.522 10.179-34.986-31.698-21.279 15.643 19.818 42.849-16.435 18.46-44.854-14.728-13.076 22.946 35.533 31.084-7.505 23.549-46.967 4.789-2.613 26.281 45.104 13.944 2.721 24.565-40.96 23.477zm171.37-140.69c48.131-18.694 102.3 5.17 121 53.301s-5.17 102.3-53.301 121c-48.132 18.694-102.3-5.17-121-53.301s5.17-102.3 53.301-121z"/>
  <path d="m965.54 569.43l-25.68-5.041-17.983 43.188-24.489 0.382-19.322-42.606-25.511 5.84 1.137 46.768-22.216 10.309-34.981-31.063-20.93 15.711 20.061 42.263-16.102 18.454-44.591-14.15-12.73 22.866 35.517 30.449-7.204 23.408-46.491 5.21-2.329 26.067 44.831 13.371 2.94 24.314-40.353 23.669 8.474 24.76 46.393-6.02 12.575 21.017-27.237 38.036 17.813 19.173 39.934-24.369 20.036 14.085-9.411 45.826 24.071 10.27 26.57-38.505 24.033 4.718 10.041 45.692 26.167-0.408 8.611-45.983 23.874-5.465 27.758 37.657 23.739-11.016-10.836-45.51 19.587-14.703 40.675 23.112 17.206-19.719-28.41-37.168 11.913-21.399 46.558 4.57 7.698-25.013-41.071-22.399 2.18-24.394 44.392-14.762-3.141-25.981-46.631-3.758-7.931-23.172 34.55-31.542-13.437-22.458-44.128 15.534-16.67-17.943 18.733-42.868-21.41-15.051-33.995 32.139-22.527-9.612-0.32-46.78zm37.988 216.4c-7.3 50.642-54.271 85.779-104.91 78.479-50.642-7.3-85.779-54.271-78.479-104.91s54.271-85.779 104.91-78.479 85.779 54.271 78.479 104.91z"/>
  <path d="m1086.8 1380.8l-9.429-3.025-8.66 15.438-9.22-0.934-5.385-16.862-9.844 1.072-1.631 17.626-8.803 2.896-11.778-13.214-8.557 4.983 5.679 16.766-6.864 6.226-16.134-7.281-5.791 8.032 12.007 13.006-3.738 8.48-17.701-0.089-2.023 9.693 16.259 6.998 0.034 9.267-16.206 7.119 2.095 9.678 17.7-0.22 3.801 8.452-11.91 13.095 5.85 7.989 16.08-7.4 6.91 6.175-5.554 16.807 8.594 4.919 11.68-13.301 8.824 2.831 1.762 17.613 9.852 0.999 5.26-16.901 9.212-1.003 8.774 15.374 9.406-3.095-2.069-17.58 8.008-4.663 14.268 10.476 7.334-6.653-9.04-15.219 5.419-7.517 17.296 3.767 3.994-9.061-14.448-10.226 1.893-9.071 17.332-3.594-0.037-9.902-17.359-3.465-1.96-9.057 14.372-10.333-4.061-9.031-17.267 3.895-5.475-7.477 8.927-15.285-7.383-6.599-14.19 10.581-8.042-4.604 1.937-17.591zm4.75 82.996c-4.973 18.71-24.171 29.847-42.881 24.874s-29.847-24.171-24.874-42.881 24.171-29.847 42.882-24.874c18.709 4.972 29.846 24.171 24.873 42.881z"/>
  <path d="m739.17 1044.8l-2.041 8.189 13.617 6.493-0.275 7.893-14.035 5.531 1.466 8.311 15.081 0.394 2.959 7.322-10.573 10.761 4.72 6.996 13.937-5.774 5.682 5.486-5.281 14.131 7.157 4.471 10.383-10.944 7.422 2.7 0.923 15.058 8.357 1.174 5.034-14.221 7.878-0.552 6.967 13.38 8.112-2.327-1.185-15.039 6.973-3.708 11.807 9.39 6.464-5.425-7.2-13.257 4.862-6.224 14.606 3.776 3.699-7.586-11.969-9.182 1.91-7.663 14.879-2.492 0.294-8.434-14.669-3.52-1.372-7.778 12.579-8.328-3.162-7.824-14.833 2.751-4.417-6.547 8.104-12.724-6.071-5.862-12.432 8.546-6.698-4.184 2.228-14.92-7.931-2.886-7.881 12.864-7.821-1.098-4.033-14.537-8.419 0.59-1.968 14.957-7.592 2.178-9.597-11.639-7.451 3.963 4.286 14.464-6.049 5.077-13.502-6.73-5.195 6.651 9.799 11.47-3.461 7.099-15.072-0.661zm70.312-8.719c16.191 3.174 26.744 18.872 23.571 35.063-3.174 16.191-18.872 26.744-35.063 23.571-16.191-3.174-26.744-18.872-23.571-35.063 3.173-16.192 18.872-26.745 35.063-23.571z"/>
  <path d="m1941.8 1089.7l7.275-12.697-19.649-17.269 4.189-13.038 26.03-2.593 1.482-14.558-24.974-7.784-1.476-13.615 22.725-12.957-4.568-13.902-25.981 3.047-6.886-11.837 15.49-21.079-9.828-10.842-22.496 13.351-11.106-8.013 5.577-25.557-13.388-5.908-15.121 21.346-13.405-2.803-5.3-25.616-14.634 0.048-5.131 25.651-13.386 2.891-15.261-21.246-13.349 5.996 5.746 25.52-11.053 8.086-22.583-13.202-9.756 10.907 15.629 20.977-6.808 11.883-26-2.875-4.476 13.932 22.81 12.806-1.387 13.624-24.922 7.949 1.578 14.548 26.047 2.422 4.275 13.01-19.534 17.398 7.359 12.649 24.78-8.382 9.197 10.147-10.769 23.839 11.867 8.562 19.228-17.736 12.529 5.529-0.142 26.159 14.324 2.995 10.352-24.023 13.695-0.045 10.51 23.955 14.304-3.09-0.314-26.157 12.492-5.611 19.345 17.609 11.81-8.641-10.926-23.768 9.13-10.207 24.834 8.215zm-121.42-18.685c-25.513-12.947-35.699-44.125-22.752-69.638s44.125-35.699 69.638-22.752 35.699 44.125 22.752 69.638c-12.947 25.512-44.126 35.699-69.638 22.752z"/>
  <path d="m1886.2 292.38l-11.929-4.212-11.629 19.394-11.739-1.534-6.254-21.732-12.61 1.004-2.735 22.448-11.348 3.373-14.552-17.309-11.112 6.047 6.631 21.62-8.995 7.697-20.334-9.894-7.692 10.043 14.852 17.053-5.087 10.69-22.601-0.768-2.942 12.304 20.504 9.538-0.299 11.835-20.959 8.491 2.317 12.436 22.611 0.374 4.541 10.933-15.693 16.282 7.175 10.419 20.808-8.855 8.595 8.141-7.714 21.257 10.792 6.6 15.407-16.553 11.163 3.942 1.599 22.557 12.544 1.64 7.343-21.388 11.801-0.94 10.635 19.957 12.126-3.604-1.992-22.526 10.399-5.659 17.833 13.906 9.612-8.225-10.981-19.768 7.198-9.399 21.947 5.45 5.436-11.423-18.073-13.593 2.753-11.514 22.266-3.948 0.319-12.646-22.039-5.067-2.168-11.639 18.736-12.663-4.852-11.683-22.194 4.335-6.715-9.75 11.965-19.189-9.184-8.699-18.512 12.988-10.1-6.176 3.126-22.398zm2.995 106.16c-7.042 23.709-31.971 37.22-55.68 30.178s-37.22-31.971-30.178-55.68 31.971-37.22 55.68-30.178 37.221 31.971 30.178 55.68z"/>
  <path d="m1315.2 1476.2l4.459-8.029-12.475-10.672 2.519-8.217 16.312-1.846 0.808-9.148-15.737-4.675-1.041-8.531 14.151-8.321-2.983-8.686-16.278 2.13-4.421-7.37 9.544-13.357-6.258-6.721-14.004 8.566-7.036-4.935 3.286-16.084-8.451-3.595-9.309 13.522-8.435-1.647-3.541-16.03-9.182 0.153-3.005 16.139-8.376 1.927-9.755-13.204-8.326 3.875 3.819 15.966-6.868 5.167-14.282-8.095-6.031 6.926 9.983 13.032-4.173 7.514-16.34-1.586-2.692 8.78 14.421 7.845-0.756 8.561-15.572 5.197 1.112 9.116 16.365 1.301 2.792 8.128-12.112 11.081 4.724 7.876 15.479-5.467 5.856 6.29-6.558 15.05 7.519 5.274 11.917-11.291 7.908 3.364 0.13 16.416 9.013 1.76 6.295-15.162 8.593-0.143 6.796 14.944 8.95-2.059-0.417-16.411 7.792-3.626 12.287 10.888 7.339-5.521-7.056-14.823 5.644-6.482 15.657 4.946zm-76.352-10.707c-16.118-7.911-22.772-27.39-14.861-43.508s27.39-22.772 43.508-14.861 22.772 27.39 14.861 43.508-27.39 22.772-43.508 14.861z"/>
  <path d="m638.74 303.59l-3.197-11.139-20.652 1.631-5.094-9.574 12.891-16.216-7.452-8.876-18.203 9.89-8.548-6.675 5.181-20.058-10.417-5.077-12.607 16.438-10.524-2.621-3.425-20.431-11.582-0.401-4.831 20.145-10.68 1.886-11.439-17.272-10.744 4.344 3.78 20.368-8.99 6.067-17.475-11.126-8.048 8.338 11.738 17.07-5.745 9.199-20.489-3.056-3.961 10.891 17.666 10.82-1.506 10.74-19.961 5.542 0.812 11.56 20.54 2.699 2.992 10.424-15.981 13.182 5.443 10.231 19.862-5.889 6.973 8.306-9.238 18.542 9.134 7.132 15.749-13.458 9.749 4.752-0.898 20.697 11.245 2.801 8.914-18.7 10.839 0.376 7.598 19.272 11.412-2.015 0.537-20.709 10.055-4.065 14.78 14.516 9.606-6.483-7.933-19.137 7.532-7.804 19.406 7.249 6.138-9.83-15.031-14.256 3.707-10.192 20.677-1.271 1.61-11.477-19.53-6.91-0.759-10.819 18.374-9.571zm-77.621 58.658c-21.433 7.346-44.764-4.073-52.11-25.506s4.073-44.764 25.506-52.11 44.764 4.073 52.11 25.506-4.073 44.764-25.506 52.11z"/>
  <path d="m1408.6 1335.8l7.056-1.762-0.571-12.988 6.116-2.986 9.889 8.44 5.729-4.479-5.805-11.633 4.373-5.215 12.467 3.688 3.412-6.423-10.034-8.266 1.874-6.543 12.889-1.702 0.505-7.255-12.529-3.47-0.95-6.74 11.083-6.797-2.49-6.833-12.857 1.926-3.609-5.771 7.36-10.717-5.054-5.23-10.962 6.989-5.644-3.804 2.365-12.784-6.744-2.722-7.172 10.843-6.703-1.18-3.039-12.64-7.268 0.256-2.141 12.823-6.603 1.649-7.918-10.311-6.536 3.19 3.259 12.586-5.362 4.192-11.427-6.199-4.673 5.573 8.096 10.172-3.193 6.01-12.961-1.015-2.002 6.992 11.534 5.999-0.472 6.79-12.253 4.344 1.015 7.202 12.977 0.789 2.33 6.395-9.427 8.953 3.856 6.166 12.176-4.557 4.73 4.894-4.971 12.013 6.031 4.065 9.27-9.115 6.311 2.547 0.345 12.996 7.163 1.26 4.761-12.098 6.802-0.24 5.596 11.733zm-35.093-49.965c-4.139-13.603 3.533-27.986 17.136-32.125s27.986 3.533 32.125 17.136-3.533 27.986-17.136 32.125c-13.603 4.14-27.986-3.533-32.125-17.136z"/>
  <path d="m833.16 365.03l9.818-10.204-14.375-20.836 7.002-11.251 25.042 3.696 4.819-13.315-21.607-13.187 1.821-13.126 24.38-6.809-1.013-14.124-25.103-3.259-3.676-12.732 19.503-16.137-6.671-12.491-24.258 7.233-8.537-10.136 11.254-22.674-11.174-8.698-19.219 16.474-11.921-5.788 1.058-25.291-13.746-3.401-10.857 22.867-13.245-0.439-9.32-23.535-13.941 2.484-0.617 25.306-12.278 4.987-18.087-17.71-11.725 7.94 9.729 23.369-9.188 9.549-23.726-8.822-7.482 12.022 18.393 17.392-4.51 12.461-25.263 1.591-1.945 14.026 23.877 8.407 0.948 13.218-22.432 11.729 3.928 13.605 25.232-2.031 6.243 11.69-15.722 19.839 9.122 10.831 22.224-12.118 10.457 8.14-6.293 24.519 12.739 6.185 15.374-20.11 12.864 3.183 4.223 24.958 14.153 0.469 5.865-24.624 13.047-2.325 14.01 21.083 13.12-5.328-4.658-24.881 10.973-7.43 21.371 13.559zm-109.57-46.133c-20.897-18.16-23.115-49.823-4.954-70.719s49.823-23.115 70.719-4.954c20.897 18.16 23.115 49.823 4.955 70.719-18.161 20.896-49.823 23.114-70.72 4.954z"/>
  <path d="m1720.9 519.1l-7.418 0.42-1.907 13.144-6.709 1.828-8.312-10.359-6.606 3.401 3.604 12.784-5.385 4.399-11.807-6.083-4.651 5.794 8.492 10.213-3.13 6.209-13.261-0.754-1.892 7.185 11.911 5.876-0.334 6.945-12.421 4.704 1.193 7.334 13.272 0.523 2.519 6.481-9.434 9.35 4.073 6.214 12.337-4.92 4.938 4.896-4.815 12.378 6.249 4.02 9.269-9.513 6.502 2.464 0.636 13.267 7.344 1.131 4.599-12.46 6.942-0.393 5.977 11.861 7.169-1.953-0.867-13.254 6.182-3.183 10.285 8.405 5.754-4.7-6.183-11.755 4.353-5.422 12.814 3.495 3.345-6.635-10.429-8.224 1.771-6.724 13.128-2.019 0.357-7.422-12.873-3.271-1.117-6.863 11.171-7.184-2.692-6.925-13.09 2.248-3.812-5.816 7.284-11.107-5.276-5.232-11.044 7.378-5.848-3.762 2.136-13.109-6.948-2.633-7.089 11.232-6.872-1.059-3.384-12.845zm25.676 56.849c1.556 14.443-8.892 27.412-23.335 28.968s-27.412-8.892-28.968-23.335 8.892-27.413 23.335-28.968 27.412 8.892 28.968 23.335z"/>
  <path d="m1649.1 1211.3l-22.336 10.084 9.703 42.72-18.484 13.576-37.861-22.038-16.303 18.297 26.239 35.08-11.364 19.921-43.551-4.733-7.452 23.346 38.239 21.375-2.279 22.821-41.711 13.39 2.688 24.359 43.627 3.973 7.2 21.775-32.659 29.198 12.363 21.16 41.471-14.115 15.434 16.964-17.959 39.957 19.901 14.302 32.145-29.763 21 9.22-0.155 43.807 23.997 4.971 17.26-40.264 22.934-0.119 17.677 40.083 23.944-5.219-0.609-43.803 20.903-9.437 32.452 29.428 19.751-14.507-18.373-39.769 15.258-17.123 41.615 13.684 12.143-21.286-32.96-28.858 6.974-21.848 43.583-4.425 2.435-24.385-41.848-12.957-2.515-22.796 38.016-21.77-7.693-23.268-43.5 5.184-11.57-19.802 25.875-35.35-16.492-18.127-37.63 22.429-18.624-13.384 9.26-42.818-22.439-9.852-25.255 35.796-22.458-4.652-8.957-42.882-24.506 0.127-8.512 42.973-22.408 4.884-25.624-35.534zm146.39 144.57c21.901 42.614 5.111 94.914-37.503 116.82s-94.914 5.111-116.82-37.503-5.111-94.914 37.503-116.82c42.613-21.902 94.913-5.111 116.82 37.503z"/>
  <path d="m1668 859.26l7.597 2.423 6.952-12.444 7.426 0.74 4.36 13.571 7.926-0.876 1.29-14.195 7.085-2.344 9.502 10.624 6.884-4.024-4.595-13.493 5.519-5.023 13.002 5.841 4.652-6.476-9.686-10.457 2.998-6.833 14.254 0.047 1.616-7.808-13.102-5.613-0.04-7.462 13.041-5.754-1.7-7.791-14.252 0.201-3.072-6.801 9.573-10.561-4.722-6.426-12.938 5.981-5.572-4.963 4.45-13.542-6.927-3.95-9.387 10.726-7.109-2.268-1.443-14.181-7.935-0.791-4.213 13.617-7.417 0.82-7.086-12.368-7.57 2.505 1.69 14.153-6.442 3.766-11.504-8.417-5.897 5.367 7.3 12.243-4.354 6.061-13.932-3.01-3.204 7.302 11.649 8.215-1.512 7.307-13.952 2.917 0.043 7.974 13.983 2.767 1.591 7.291-11.56 8.34 3.282 7.267 13.899-3.16 4.419 6.013-7.168 12.32 5.954 5.304 11.412-8.54 6.483 3.696-1.541 14.172zm-3.937-66.827c3.979-15.073 19.424-24.067 34.497-20.088s24.067 19.424 20.088 34.497-19.424 24.067-34.497 20.088-24.067-19.424-20.088-34.497z"/>
  <path d="m2088.2 500.95l7.085-4.045-4.561-13.853 5.699-5.082 13.242 6.112 4.827-6.578-9.802-10.8 3.139-6.96 14.584 0.197 1.735-7.972-13.347-5.88 0.037-7.635 13.403-5.752-1.658-7.989-14.585 0.057-3.072-6.99 9.905-10.706-4.764-6.624-13.301 5.984-5.65-5.136 4.694-13.809-7.046-4.113-9.717 10.877-7.25-2.394-1.328-14.524-8.11-0.892-4.453 13.889-7.597 0.762-7.121-12.728-7.772 2.484 1.581 14.499-6.631 3.786-11.682-8.732-6.089 5.43 7.342 12.602-4.518 6.156-14.224-3.225-3.354 7.438 11.833 8.527-1.623 7.461-14.306 2.839-0.039 8.159 14.278 2.977 1.552 7.476-11.914 8.412 3.283 7.469 14.254-3.088 4.458 6.199-7.463 12.531 6.037 5.488 11.766-8.619 6.594 3.85-1.721 14.483 7.748 2.559 7.243-12.659 7.59 0.835 4.319 13.931 8.118-0.814 1.468-14.511 7.273-2.325 9.611 10.966zm-53.072-43.304c-8.601-13.434-4.683-31.297 8.751-39.898s31.297-4.683 39.898 8.751 4.683 31.297-8.751 39.898c-13.435 8.602-31.297 4.683-39.898-8.751z"/>
  <path d="m1497 1441.4l2.988-6.177-9.754-7.436 1.534-6.235 12.091-2.063 0.218-6.858-11.936-2.826-1.135-6.32 10.206-6.802-2.59-6.354-12.053 2.273-3.608-5.312 6.557-10.365-4.951-4.751-10.086 6.979-5.456-3.385 1.775-12.136-6.455-2.326-6.376 10.478-6.361-0.874-3.315-11.809-6.843 0.5-1.563 12.165-6.167 1.789-7.832-9.439-6.048 3.24 3.521 11.749-4.906 4.143-10.994-5.438-4.207 5.42 7.995 9.302-2.797 5.78-12.255-0.496-1.639 6.663 11.087 5.246-0.204 6.418-11.398 4.531 1.213 6.753 12.262 0.282 2.424 5.946-8.569 8.776 3.855 5.676 11.317-4.729 4.633 4.446-4.259 11.502 5.83 3.618 8.415-8.924 6.041 2.177 0.788 12.24 6.798 0.933 4.058-11.575 6.404-0.468 5.698 10.861 6.59-1.912-1.001-12.225 5.66-3.032 9.623 7.605 5.242-4.427-5.886-10.761 3.937-5.072 11.884 3.036zm-57.406-4.776c-12.356-5.223-18.139-19.474-12.915-31.83 5.223-12.356 19.474-18.139 31.83-12.915 12.356 5.223 18.139 19.474 12.915 31.83-5.223 12.356-19.474 18.138-31.83 12.915z"/>
  <path d="m2038.7 1404.7l-8.579-4.561-11.046 13.402-8.74-2.506-2.268-17.219-9.692-0.677-4.64 16.736-9.004 1.266-9.076-14.808-9.13 3.324 2.568 17.177-7.71 4.819-14.314-9.836-6.988 6.75 9.333 14.647-5.084 7.538-17.077-3.164-3.639 9.009 14.483 9.585-1.578 8.954-16.888 4.056 0.34 9.71 17.13 2.865 2.2 8.822-13.778 10.574 4.26 8.732 16.814-4.35 5.598 7.164-8.286 15.264 7.443 6.245 13.591-10.813 8.029 4.268-1.361 17.314 9.34 2.677 8.019-15.406 9.07 0.634 5.799 16.371 9.621-1.353 1.059-17.336 8.544-3.11 11.956 12.597 8.239-5.149-6.083-16.268 6.54-6.317 16.046 6.645 5.432-8.055-12.174-12.387 3.406-8.431 17.362-0.456 1.686-9.568-16.16-6.364-0.318-9.087 15.675-7.478-2.351-9.427-17.351 0.759-3.986-8.172 11.278-13.208-5.982-7.656-15.543 7.75-6.966-5.844 4.931-16.648zm-9.846 80.971c-8.055 17.203-28.531 24.618-45.734 16.563s-24.618-28.531-16.563-45.734 28.531-24.618 45.734-16.563c17.203 8.056 24.619 28.532 16.563 45.734z"/>
  <path d="m2059.7 954.15l-2.606 7.361 11.965 7.189-0.954 7.245-13.418 3.848 0.613 7.785 13.855 1.701 2.076 7.007-10.693 8.973 3.726 6.862 13.349-4.081 4.746 5.557-6.119 12.546 6.195 4.754 10.535-9.158 6.596 3.146-0.487 13.95 7.593 1.823 5.899-12.651 7.305 0.191 5.229 12.942 7.678-1.423 0.244-13.957 6.751-2.797 10.042 9.696 6.435-4.423-5.454-12.849 5.03-5.301 13.117 4.774 4.08-6.658-10.209-9.52 2.439-6.889 13.925-0.974 1.019-7.742-13.198-4.544-0.573-7.285 12.324-6.554-2.218-7.487-13.906 1.217-3.487-6.422 8.594-11-5.072-5.938-12.208 6.767-5.798-4.449 3.376-13.544-7.048-3.362-8.4 11.148-7.106-1.706-2.424-13.747-7.806-0.204-3.14 13.601-7.185 1.332-7.806-11.572-7.214 2.988 2.663 13.702-6.022 4.139-11.838-7.397-5.375 5.664 8.006 11.434-3.818 6.231-13.823-1.939zm65.532-1.789c14.631 4.36 22.957 19.755 18.596 34.386-4.36 14.631-19.755 22.957-34.386 18.596-14.631-4.36-22.957-19.755-18.596-34.386 4.36-14.631 19.755-22.957 34.386-18.596z"/>
  <path d="m634.48 1082.6l17.765-13.152-16.707-35.806 13.703-15.496 37.581 12.2 10.879-19.24-29.826-25.915 6.215-19.729 39.294-4.14 2.113-22.002-37.788-11.543-2.347-20.552 34.213-19.765-7.019-20.959-39.216 4.824-10.503-17.82 23.216-31.971-14.937-16.293-33.863 20.358-16.843-12.008 8.205-38.65-20.272-8.809-22.654 32.371-20.271-4.119-8.225-38.646-22.102 0.198-7.53 38.787-20.194 4.482-23.233-31.96-20.111 9.171 8.897 38.497-16.625 12.308-34.223-19.747-14.642 16.558 23.786 31.55-10.182 18.006-39.296-4.12-6.641 21.082 34.562 19.148-1.978 20.59-37.575 12.219 2.508 21.961 39.362 3.435 6.568 19.615-29.356 26.446 11.223 19.042 37.356-12.872 13.978 15.247-16.061 36.1 17.998 12.831 28.891-26.954 18.972 8.244 0.01 39.512 21.661 4.401 15.43-36.374 20.684-0.186 16.08 36.091 21.578-4.789-0.699-39.505 18.821-8.583 29.37 26.431zm-156.64-99.494c-27.44-33.384-22.621-82.692 10.763-110.13s82.692-22.621 110.13 10.763 22.621 82.692-10.763 110.13-82.692 22.621-110.13-10.763z"/>
  <path d="m1162.1 896.48l8.836 12.973 25.874-10.854 10.613 10.156-9.707 26.326 13.349 8.257 19.222-20.44 13.826 4.961 1.84 27.998 15.553 2.114 9.247-26.491 14.649-1.091 13.069 24.829 15.068-4.395-2.328-27.962 12.938-6.955 22.038 17.367 11.978-10.144-13.499-24.597 8.991-11.616 27.196 6.902 6.817-14.139-22.337-16.98 3.489-14.269 27.652-4.757 0.477-15.689-27.312-6.427-2.616-14.454 23.327-15.592-5.946-14.526-27.565 5.238-8.269-12.141 14.968-23.732-11.34-10.852-23.052 15.997-12.492-7.728 4.021-27.769-14.774-5.302-14.552 23.99-14.555-1.978-7.621-27.004-15.653 1.166-3.537 27.835-14.102 4.113-17.945-21.569-13.825 7.432 8.09 26.867-11.21 9.493-25.167-12.405-9.608 12.412 18.319 21.253-6.38 13.232-28.037-1.097-3.728 15.247 25.379 11.965-0.446 14.682-26.059 10.402 2.796 15.445 28.052 0.608 5.564 13.595-19.576 20.1zm74.975-108.37c24.455-18.538 59.308-13.741 77.846 10.714s13.741 59.308-10.714 77.846-59.308 13.741-77.846-10.714-13.741-59.308 10.714-77.846z"/>
  <path d="m1080.3 406.31l-4.973-16.552-30.766 2.811-7.772-14.184 18.926-24.419-11.275-13.098-26.963 15.082-12.87-9.796 7.358-30.005-15.628-7.38-18.498 24.745-15.742-3.715-5.483-30.404-17.278-0.386-6.834 30.129-15.892 3.009-17.375-25.546-15.942 6.675 6.012 30.304-13.294 9.212-26.263-16.27-11.848 12.582 17.818 25.239-8.398 13.823-30.61-4.181-5.706 16.314 26.543 15.81-2.049 16.044-29.664 8.631 1.423 17.224 30.678 3.647 4.653 15.49-23.589 19.95 8.305 15.156 29.51-9.146 10.552 12.258-13.436 27.82 13.752 10.468 23.238-20.358 14.625 6.907-0.959 30.88 16.821 3.97 12.949-28.05 16.17 0.361 11.684 28.6 16.981-3.215 0.42-30.892 14.919-6.247 22.307 21.375 14.205-9.844-12.181-28.392 11.088-11.775 29.072 10.454 8.973-14.771-22.676-20.983 5.34-15.267 30.811-2.274 2.19-17.143-29.25-9.946-1.331-16.119 27.222-14.612zm-114.67 88.897c-31.827 11.349-66.827-5.252-78.176-37.078s5.252-66.827 37.078-78.176c31.827-11.349 66.827 5.252 78.176 37.078 11.349 31.827-5.251 66.827-37.078 78.176z"/>
  <path d="m2133.5 602.25l-13.75-18.735-37.719 17.408-16.232-14.475 12.992-39.458-20.181-11.523-27.378 31.244-20.716-6.621-4.18-41.332-23.123-2.318-12.303 39.679-21.618 2.377-20.63-36.058-22.067 7.287 4.9 41.253-18.782 10.964-33.512-24.55-17.196 15.633 21.255 35.693-12.699 17.656-40.6-8.797-9.35 21.275 33.935 23.962-4.42 21.295-40.668 8.477 0.111 23.239 40.747 8.088 4.624 21.251-33.704 24.286 9.554 21.185 40.514-9.185 12.867 17.533-20.912 35.895 17.344 15.467 33.276-24.87 18.886 10.784-4.505 41.297 22.136 7.076 20.284-36.254 21.64 2.17 12.682 39.559 23.1-2.54 3.784-41.37 20.652-6.82 27.676 30.981 20.07-11.716-13.369-39.332 16.092-14.63 37.884 17.046 13.57-18.866-28.212-30.494 8.751-19.91 41.542 0.163 4.723-22.754-38.176-16.383-0.104-21.748 38.017-16.748-4.94-22.708-41.539 0.561-8.941-19.826 27.918-30.763zm-105.3 164.25c-35.22 28.703-87.041 23.42-115.74-11.801s-23.419-87.041 11.801-115.74c35.221-28.703 87.041-23.42 115.74 11.801 28.703 35.22 23.419 87.041-11.801 115.74z"/>
  <path d="m1418.5 287.61l2.884-10.673-17.668-8.856 0.563-10.331 18.526-6.883-1.707-10.923-19.743-0.904-3.688-9.667 14.125-13.823-6.002-9.285-18.404 7.205-7.301-7.331 7.282-18.373-9.26-6.041-13.882 14.067-9.652-3.728-0.821-19.746-10.916-1.752-6.96 18.497-10.333 0.52-8.782-17.705-10.685 2.839 1.165 19.729-9.229 4.678-15.224-12.603-8.607 6.94 9.089 17.55-6.528 8.027-19.034-5.321-5.04 9.84 15.441 12.336-2.699 9.988-19.552 2.881-0.602 11.04 19.124 4.989 1.597 10.223-16.69 10.584 3.94 10.33 19.499-3.221 5.617 8.689-10.943 16.458 7.801 7.834 16.504-10.873 8.666 5.653-3.302 19.486 10.313 3.984 10.654-16.646 10.216 1.64 4.909 19.144 11.042-0.555 2.962-19.54 10-2.657 12.271 15.493 9.861-4.999-5.241-19.056 8.054-6.495 17.511 9.162 6.976-8.578-12.539-15.276 4.717-9.209 19.725 1.244zm-92.32 9.61c-21.126-4.574-34.544-25.408-29.971-46.534 4.574-21.126 25.408-34.544 46.534-29.971 21.126 4.574 34.544 25.408 29.97 46.534-4.574 21.127-25.407 34.545-46.533 29.971z"/>
  <path d="m474.55 1154.5l1.157-13.668-23.529-6.898-1.6-12.736 21.092-12.504-4.502-12.957-24.301 3.268-6.642-10.985 14.182-20.001-9.383-10.005-20.871 12.87-10.536-7.333 4.821-24.041-12.641-5.324-13.832 20.246-12.608-2.414-5.374-23.924-13.714 0.278-4.401 24.122-12.499 2.923-14.64-19.669-12.415 5.832 5.79 23.826-10.23 7.754-21.375-12.014-8.97 10.377 14.981 19.411-6.192 11.245-24.413-2.281-3.974 13.128 21.581 11.64-1.083 12.791-23.231 7.846 1.71 13.61 24.449 1.856 4.213 12.125-18.031 16.616 7.097 11.738 23.09-8.249 8.781 9.364-9.714 22.514 11.258 7.836 17.739-16.928 11.83 4.983 0.283 24.518 13.472 2.579 9.32-22.679 12.834-0.26 10.231 22.283 13.356-3.123-0.71-24.51 11.619-5.458 18.41 16.196 10.931-8.286-10.618-22.102 8.394-9.711 23.406 7.307 6.616-12.015-18.689-15.872 3.719-12.286 24.356-2.849zm-110.57 32.173c-26.802-0.906-47.795-23.367-46.889-50.169s23.367-47.795 50.169-46.89c26.802 0.906 47.795 23.367 46.889 50.169s-23.367 47.796-50.169 46.89z"/>
  <path d="m112.26 1023l3.628 6.399 12.502-4.075 4.566 5.152-5.546 11.923 5.917 4.37 9.764-8.808 6.267 2.849-0.217 13.148 7.183 1.585 5.337-12.018 6.884 0.054 5.149 12.099 7.207-1.473-0.012-13.15 6.311-2.751 9.625 8.959 5.985-4.277-5.359-12.008 4.646-5.08 12.437 4.269 3.728-6.342-9.78-8.79 2.178-6.53 13.098-1.159 0.826-7.31-12.51-4.052-0.666-6.852 11.495-6.386-2.219-7.013-13.076 1.387-3.395-5.988 7.904-10.509-4.879-5.505-11.382 6.585-5.538-4.09 2.946-12.815-6.697-3.044-7.719 10.645-6.722-1.484-2.521-12.906-7.356-0.057-2.722 12.865-6.745 1.379-7.553-10.764-6.743 2.94 2.746 12.86-5.601 4.003-11.278-6.762-4.965 5.428 7.739 10.631-3.488 5.935-13.053-1.59-2.328 6.978 11.394 6.564-0.773 6.841-12.571 3.857 0.712 7.321 13.079 1.362 2.076 6.564-9.915 8.636zm39.186-47.732c12.135-7.718 28.23-4.138 35.948 7.997s4.138 28.23-7.997 35.948-28.23 4.138-35.948-7.997c-7.719-12.136-4.139-28.23 7.997-35.948z"/>
  <path d="m1047.9 306l10.574 2.582 8.291-17.603 10.182 0.306 7.22 18.068 10.71-1.943 0.414-19.453 9.426-3.862 13.945 13.57 8.994-6.131-7.534-17.94 7.04-7.362 18.259 6.725 5.723-9.259-14.179-13.325 3.437-9.589 19.415-1.283 1.462-10.786-18.373-6.405-0.76-10.158 17.215-9.069-3.052-10.448-19.39 1.621-4.826-8.971 12.038-15.287-7.037-8.304-17.054 9.368-8.058-6.232 4.779-18.862-9.806-4.724-11.77 15.494-9.896-2.416-3.306-19.175-10.88-0.327-4.45 18.942-10.023 1.818-10.819-16.172-10.072 4.127 3.639 19.114-8.417 5.738-16.461-10.374-7.523 7.867 11.099 15.982-5.356 8.665-19.258-2.781-3.673 10.246 16.64 10.085-1.368 10.094-18.724 5.292 0.812 10.854 19.303 2.445 2.856 9.778-14.953 12.45 5.157 9.586 18.629-5.617 6.586 7.771-8.596 17.456 8.61 6.659 14.734-12.709 9.177 4.421-0.752 19.443zm-11.68-90.633c3.993-20.903 24.176-34.611 45.078-30.618 20.903 3.993 34.611 24.175 30.618 45.078s-24.176 34.611-45.078 30.618-34.611-24.175-30.618-45.078z"/>
  <path d="m1504.9 534.9l-8.231 5.583 6.847 16.408-6.448 6.712-16.67-6.182-5.248 8.448 12.929 12.204-3.16 8.755-17.743 1.133-1.358 9.853 16.775 5.891 0.674 9.283-15.748 8.251 2.767 9.553 17.72-1.442 4.391 8.207-11.031 13.943 6.413 7.602 15.602-8.525 7.35 5.711-4.406 17.224 8.951 4.336 10.786-14.134 9.037 2.228 2.981 17.527 9.941 0.321 4.105-17.299 9.162-1.641 9.852 14.799 9.212-3.75-3.286-17.473 7.703-5.225 15.02 9.513 6.89-7.173-10.109-14.626 4.911-7.906 17.591 2.581 3.377-9.355-15.184-9.25 1.271-9.221 17.12-4.797-0.72-9.92-17.633-2.274-2.589-8.94 13.689-11.345-4.693-8.769-17.034 5.094-6.002-7.114 7.891-15.932-7.854-6.102-13.489 11.582-8.376-4.058 0.728-17.764-9.657-2.38-7.612 16.067-9.303-0.3-6.56-16.525-9.79 1.753-0.419 17.774-8.621 3.51-12.712-12.424zm68.577 47.636c11.717 15.518 8.636 37.597-6.882 49.314s-37.597 8.636-49.314-6.882-8.636-37.597 6.882-49.314 37.596-8.636 49.314 6.882z"/>
  <path d="m1977.6 1331l14.534 11.347 25.057-21.416 15.513 7.559-1.426 32.931 17.893 4.454 14.18-29.756 17.246 0.596 12.092 30.664 18.158-3.208 0.852-32.951 15.997-6.47 23.519 23.094 15.283-10.317-12.625-30.448 11.983-12.417 30.878 11.532 9.766-15.641-23.917-22.681 5.896-16.218 32.9-2.025 2.56-18.261-31.075-10.992-1.21-17.214 29.232-15.231-5.089-17.723-32.859 2.597-8.107-15.233 20.51-25.804-11.858-14.121-28.962 15.738-13.602-10.619 8.241-31.915-16.576-8.077-20.057 26.157-16.745-4.169-5.452-32.508-18.428-0.637-7.684 32.054-16.993 3.003-18.203-27.48-17.094 6.913 6.018 32.408-14.303 9.655-27.806-17.7-12.804 13.269 18.679 27.158-9.139 14.637-32.602-4.86-6.3 17.329 28.11 17.213-2.396 17.089-31.76 8.82 1.293 18.394 32.681 4.291 4.762 16.586-25.426 20.976 8.663 16.278 31.601-9.373 11.097 13.215-14.696 29.508zm45.045-148.11c20.716-29.504 61.428-36.627 90.931-15.91 29.504 20.717 36.627 61.428 15.91 90.932s-61.428 36.627-90.932 15.91c-29.502-20.717-36.625-61.428-15.909-90.932z"/>
  <path d="m1527.9 884.55l-20.153 1.068-5.311 35.683-18.24 4.899-22.475-28.219-17.976 9.173 9.661 34.758-14.67 11.895-32.01-16.638-12.691 15.692 22.964 27.823-8.564 16.833-36.01-2.18-5.212 19.497 32.295 16.078-0.977 18.861-33.783 12.655 3.169 19.931 36.042 1.552 6.779 17.628-25.715 25.302 11.002 16.919 33.558-13.242 13.363 13.347-13.201 33.574 16.932 10.981 25.271-25.746 17.636 6.758 1.596 36.041 19.935 3.145 12.614-33.799 18.86-1 16.117 32.276 19.49-5.235-2.224-36.007 16.823-8.584 27.851 22.93 15.676-12.71-16.677-31.99 11.877-14.685 34.77 9.619 9.151-17.987-28.247-22.441 4.877-18.246 35.676-5.354 1.044-20.154-34.932-9.012-2.966-18.652 30.414-19.402-7.244-18.836-35.578 5.975-10.296-15.833 19.893-30.095-14.279-14.262-30.071 19.93-15.846-10.277 5.932-35.585-18.845-7.221-19.365 30.438-18.656-2.943-9.054-34.926zm69.176 154.66c4.083 39.245-24.422 74.368-63.667 78.451-39.245 4.082-74.368-24.422-78.451-63.667s24.422-74.368 63.667-78.451c39.246-4.082 74.369 24.422 78.451 63.667z"/>
  <path d="m1400.8 454.04l-9.215-16.102-31.49 10.402-11.568-12.946 13.867-30.125-14.967-10.962-24.536 22.311-15.834-7.122 0.416-33.161-18.132-3.926-13.34 30.362-17.362-0.066-13.108-30.463-18.161 3.788 0.162 33.163-15.887 7.001-24.365-22.497-15.05 10.847 13.637 30.23-11.666 12.858-31.409-10.642-9.337 16.031 24.754 22.069-5.428 16.491-33.022 3.053-2.01 18.443 31.59 10.093 1.749 17.273-28.926 16.221 5.666 17.666 32.964-3.628 8.623 15.069-19.827 26.583 12.361 13.834 28.639-16.722 14.007 10.258-7.301 32.35 16.919 7.61 19.361-26.925 16.968 3.674 6.488 32.522 18.552 0.071 6.736-32.472 16.996-3.545 19.155 27.072 16.977-7.481-7.054-32.404 14.085-10.151 28.51 16.94 12.466-13.739-19.624-26.734 8.738-15.003 32.935 3.879 5.8-17.622-28.801-16.441 1.881-17.26 31.666-9.852-1.869-18.458-32.998-3.305-5.302-16.532 24.921-21.878zm-98.345 120.77c-30.527 19.587-71.153 10.719-90.74-19.808s-10.719-71.153 19.808-90.74 71.153-10.719 90.74 19.808 10.719 71.153-19.808 90.74z"/>
  <path d="m1213.1 189.83l9.785-0.616 2.408-17.36 8.837-2.468 11.054 13.6 8.688-4.543-4.861-16.838 7.069-5.849 15.63 7.928 6.089-7.684-11.289-13.405 4.079-8.219 17.503 0.885 2.438-9.496-15.766-7.655 0.384-9.167 16.35-6.31-1.636-9.667-17.516-0.58-3.378-8.531 12.37-12.415-5.426-8.166-16.238 6.594-6.556-6.419 6.251-16.373-8.278-5.253-12.152 12.629-8.6-3.198-0.949-17.5-9.699-1.432-5.965 16.48-9.157 0.577-7.985-15.601-9.443 2.637 1.254 17.481-8.131 4.251-13.64-11.004-7.554 6.25 8.255 15.46-5.699 7.191-16.937-4.505-4.359 8.782 13.83 10.765-2.281 8.887-17.305 2.773-0.41 9.796 17.013 4.209 1.531 9.047-14.681 9.572 3.61 9.115 17.254-3.074 5.078 7.642-9.518 14.716 7.005 6.859 14.512-9.826 7.747 4.916-2.71 17.315 9.189 3.417 9.26-14.879 9.077 1.34 4.569 16.919zm-34.35-74.798c-2.172-19.044 11.505-36.244 30.55-38.417 19.044-2.172 36.244 11.505 38.417 30.55 2.172 19.045-11.505 36.244-30.55 38.417-19.045 2.172-36.245-11.506-38.417-30.55z"/>
  <path d="m527.24 419.12l-18.877 4.299 0.804 34.599-16.443 7.609-25.853-23.008-15.496 11.606 14.807 31.281-11.927 13.639-32.976-10.504-9.436 16.905 26.25 22.554-5.348 17.311-34.397 3.817-1.744 19.281 33.154 9.927 2.155 17.99-29.871 17.477 6.249 18.324 34.325-4.416 9.286 15.558-20.18 28.116 13.162 14.198 29.562-17.995 14.811 10.436-6.999 33.893 17.799 7.617 19.687-28.463 17.775 3.51 7.391 33.81 19.358-0.281 6.408-34.01 17.666-4.024 20.504 27.88 17.57-8.13-7.98-33.676 14.502-10.861 30.071 17.13 12.744-14.574-20.987-27.519 8.831-15.821 34.439 3.418 5.715-18.497-30.365-16.604 1.632-18.044 32.852-10.885-2.303-19.223-34.493-2.817-5.848-17.148 25.584-23.306-9.922-16.624-32.657 11.456-12.318-13.287 13.893-31.697-15.826-11.151-25.175 23.747-16.657-7.128-0.2-34.608-18.994-3.75-13.339 31.934-18.116 0.263-14.259-31.534zm90.639 134.92c10.265 36.433-10.948 74.289-47.381 84.553s-74.289-10.948-84.554-47.381 10.948-74.289 47.381-84.554c36.434-10.264 74.289 10.949 84.554 47.382z"/>
 </g>
</svg>
